<svg width="219" height="132" viewBox="0 0 219 132" fill="none" xmlns="http://www.w3.org/2000/svg">
<path d="M167.4 125.333C163.964 124.635 160.938 122.649 158.962 119.794C156.987 116.939 156.217 113.439 156.815 110.035C157.414 106.63 159.333 103.589 162.168 101.554C165.003 99.5184 168.531 98.6489 172.006 99.1292C169.758 99.7078 167.776 101.023 166.388 102.857C164.999 104.692 164.286 106.937 164.365 109.224C164.444 111.511 165.312 113.703 166.825 115.44C168.337 117.177 170.405 118.356 172.688 118.782V118.782C174.694 119.139 176.763 118.898 178.629 118.09C180.495 117.282 182.074 115.944 183.163 114.247C183.156 114.37 183.156 114.493 183.163 114.616C182.66 117.355 181.296 119.87 179.263 121.805C177.231 123.74 174.633 124.997 171.835 125.4" stroke="#FF9D65" stroke-width="2" stroke-linecap="round" stroke-linejoin="round"/>
<path d="M39.0838 125.457C37.5823 123.805 36.5714 121.766 36.1651 119.569C35.7589 117.373 35.9733 115.106 36.7843 113.025C37.5954 110.944 38.9707 109.132 40.7553 107.792C42.5398 106.452 44.6626 105.638 46.8843 105.442C49.106 105.246 51.3382 105.676 53.3292 106.682C55.3201 107.689 56.9907 109.233 58.1525 111.14C59.3144 113.047 59.9212 115.241 59.9046 117.474C59.888 119.708 59.2487 121.893 58.0587 123.782C57.7121 124.323 57.3266 124.838 56.9051 125.323H69.6943" stroke="#FF9D65" stroke-width="2" stroke-linecap="round" stroke-linejoin="round"/>
<path d="M29.4717 117.536H32.1465" stroke="#FF9D65" stroke-width="2" stroke-linecap="round" stroke-linejoin="round"/>
<path d="M63.8096 117.536H66.4844" stroke="#FF9D65" stroke-width="2" stroke-linecap="round" stroke-linejoin="round"/>
<path d="M47.9785 99V101.681" stroke="#FF9D65" stroke-width="2" stroke-linecap="round" stroke-linejoin="round"/>
<path d="M34.8877 104.425L36.7935 106.316" stroke="#FF9D65" stroke-width="2" stroke-linecap="round" stroke-linejoin="round"/>
<path d="M59.1631 106.316L61.0689 104.425" stroke="#FF9D65" stroke-width="2" stroke-linecap="round" stroke-linejoin="round"/>
<path d="M29.4717 117.536H32.1465" stroke="#FF9D65" stroke-width="2" stroke-linecap="round" stroke-linejoin="round"/>
<path d="M63.8096 117.536H66.4844" stroke="#FF9D65" stroke-width="2" stroke-linecap="round" stroke-linejoin="round"/>
<path d="M172.352 125.264H217.398" stroke="#FF9D65" stroke-width="2" stroke-linecap="round" stroke-linejoin="round"/>
<path d="M144.491 125.286H166.887" stroke="#FF9D65" stroke-width="2" stroke-linecap="round" stroke-linejoin="round"/>
<path d="M1.60059 125.264L37.9156 125.458" stroke="#FF9D65" stroke-width="2" stroke-linecap="round" stroke-linejoin="round"/>
<path d="M144.597 125.243L153.436 63.8083C140.008 59.7004 126.037 57.6529 111.997 57.7354H112.253C98.2145 57.646 84.2432 59.6863 70.8145 63.7869L79.6744 125.222C79.6744 125.222 90.8186 130.439 112.253 130.439" stroke="#FF9D65" stroke-width="2" stroke-linecap="round" stroke-linejoin="round"/>
<path d="M111.997 130.441C120.181 130.519 128.347 129.657 136.335 127.873" stroke="#FF9D65" stroke-width="2" stroke-linecap="round" stroke-linejoin="round"/>
<path d="M125.362 82.5829C126.658 83.8909 127.745 85.3911 128.585 87.0307C129.846 89.4925 130.504 92.2188 130.507 94.9853C130.626 98.6635 129.645 102.293 127.691 105.41C125.737 108.526 122.899 110.987 119.539 112.477C116.18 113.967 112.452 114.418 108.835 113.773C105.218 113.127 101.876 111.415 99.2365 108.854C96.5975 106.293 94.7821 103.002 94.023 99.4012C93.2639 95.8006 93.5956 92.0549 94.9757 88.6443C96.3559 85.2337 98.7214 82.3137 101.769 80.2584C104.817 78.2032 108.408 77.1065 112.082 77.1088C113.652 77.103 115.216 77.297 116.737 77.6861" stroke="#FF9D65" stroke-width="2" stroke-linecap="round" stroke-linejoin="round"/>
<path d="M103.223 95.7337L110.118 101.871L127.71 79.5892" stroke="#FF9D65" stroke-width="2" stroke-linecap="round" stroke-linejoin="round"/>
<path d="M113.021 1.60339V36.0949" stroke="#FF9D65" stroke-width="2" stroke-miterlimit="10" stroke-linecap="round"/>
<path d="M132.15 38.7682L152.155 10.2213" stroke="#FF9D65" stroke-width="2" stroke-miterlimit="10" stroke-linecap="round"/>
<path d="M150.938 47.8775L180.657 33.7645" stroke="#FF9D65" stroke-width="2" stroke-miterlimit="10" stroke-linecap="round"/>
<path d="M93.9137 38.8324L73.8027 10.1358" stroke="#FF9D65" stroke-width="2" stroke-miterlimit="10" stroke-linecap="round"/>
<path d="M75.2333 47.9203L45.3018 33.679" stroke="#FF9D65" stroke-width="2" stroke-miterlimit="10" stroke-linecap="round"/>
<path d="M166.373 66.0534H191.223" stroke="#FF9D65" stroke-width="2" stroke-miterlimit="10" stroke-linecap="round"/>
<path d="M35.0117 66.0534H59.8622" stroke="#FF9D65" stroke-width="2" stroke-miterlimit="10" stroke-linecap="round"/>
</svg>
