<svg width="232" height="103" viewBox="0 0 232 103" fill="none" xmlns="http://www.w3.org/2000/svg">
<path d="M230.438 101.222H211.911C208.533 101.222 206.795 97.5983 209.229 95.1826C211.663 92.7668 218.27 87.0727 218.27 84.1395C218.311 83.6735 218.258 83.2041 218.113 82.7589C217.969 82.3138 217.735 81.902 217.427 81.548C217.119 81.194 216.743 80.905 216.32 80.6981C215.897 80.4912 215.437 80.3707 214.966 80.3436C214.335 80.4087 213.727 80.6127 213.186 80.9407C212.644 81.2687 212.183 81.7124 211.837 82.2396" stroke="#FF9D65" stroke-width="2" stroke-miterlimit="10" stroke-linecap="round"/>
<path d="M173.168 101.219C174.489 97.9401 179.149 96.7322 181.583 96.7322C184.017 96.7322 190.1 98.2853 192.536 98.2853C194.972 98.2853 198.012 96.9044 201.053 96.9044C202.878 96.9044 204.965 97.508 204.965 99.0611C204.965 100.614 203.748 101.132 201.313 101.132C198.531 101.132 196.793 99.7515 194.968 97.2496C192.07 93.2768 191.49 78.787 191.49 78.787H211.658C211.658 78.787 211.308 90.7442 208.962 95.4635" stroke="#FF9D65" stroke-width="2" stroke-miterlimit="10" stroke-linecap="round"/>
<path d="M121.508 1.39111H135.797C140.863 1.39111 148.463 4.99774 148.463 4.99774V98.0131C148.463 98.0131 141.538 101.217 138.464 101.217H104.485C101.41 101.217 94.4863 98.0131 94.4863 98.0131V4.99774C94.4863 4.99774 102.086 1.39111 107.152 1.39111H121.442" stroke="#FF9D65" stroke-width="2" stroke-miterlimit="10" stroke-linecap="round"/>
<path d="M134.058 12.4008H110.381V26.6971H134.058V12.4008Z" stroke="#FF9D65" stroke-width="2" stroke-miterlimit="10" stroke-linecap="round"/>
<path d="M121.475 55.2887C126.687 55.2887 130.912 51.0952 130.912 45.9223C130.912 40.7494 126.687 36.5559 121.475 36.5559C116.262 36.5559 112.037 40.7494 112.037 45.9223C112.037 51.0952 116.262 55.2887 121.475 55.2887Z" stroke="#FF9D65" stroke-width="2" stroke-miterlimit="10" stroke-linecap="round"/>
<path d="M121.424 93.0838C125.564 93.0838 127.716 92.0975 127.716 92.0975L129.423 80.3486C126.831 79.5616 124.134 79.1699 121.424 79.187H121.475C118.765 79.1699 116.068 79.5616 113.477 80.3486L115.184 92.0975C115.184 92.0975 117.336 93.0838 121.475 93.0838" stroke="#FF9D65" stroke-width="2" stroke-miterlimit="10" stroke-linecap="round"/>
<path d="M153.763 101.216H163.524L159.862 81.1335H182.21L178.041 101.216H173.077" stroke="#FF9D65" stroke-width="2" stroke-miterlimit="10" stroke-linecap="round"/>
<path d="M69.7909 100.793C72.8354 98.7203 75.3621 95.9844 77.1779 92.7942C78.9937 89.604 80.0506 86.044 80.2677 82.3864C80.2697 82.3437 80.2629 82.3011 80.2477 82.2611C80.2326 82.2211 80.2095 82.1846 80.1797 82.1537C80.1499 82.1228 80.1142 82.0983 80.0746 82.0815C80.035 82.0647 79.9924 82.0561 79.9493 82.0562H32.1589C32.1159 82.0561 32.0733 82.0647 32.0337 82.0815C31.9941 82.0983 31.9583 82.1228 31.9286 82.1537C31.8988 82.1846 31.8757 82.2211 31.8605 82.2611C31.8454 82.3011 31.8386 82.3437 31.8405 82.3864C32.058 86.0442 33.1152 89.6043 34.9315 92.7945C36.7477 95.9847 39.2749 98.7206 42.3197 100.793H1.68848" stroke="#FF9D65" stroke-width="2" stroke-miterlimit="10" stroke-linecap="round"/>
<path d="M38.2726 80.7373C38.2726 80.7373 37.6844 79.5697 40.6256 75.7754C41.7225 74.3598 43.0374 72.9418 43.2062 71.0774C43.3526 69.4548 42.8766 67.6308 43.8708 66.1914C45.6315 63.6438 51.1143 63.9005 51.8028 67.2595C52.6848 71.5419 51.7654 74.2113 53.1266 75.4832C53.8501 76.161 53.4664 75.7802 53.4664 75.7802" stroke="#FF9D65" stroke-width="2" stroke-miterlimit="10" stroke-linecap="round"/>
<path d="M48.3701 82.0588C48.8978 80.4452 49.9267 79.0389 51.3095 78.0415C52.6922 77.0442 54.3576 76.507 56.0669 76.507C57.7763 76.507 59.4417 77.0442 60.8244 78.0415C62.2071 79.0389 63.2361 80.4452 63.7638 82.0588" stroke="#FF9D65" stroke-width="2" stroke-miterlimit="10" stroke-linecap="round"/>
<path d="M55.7705 75.2088C55.7705 75.2088 59.5562 71.3861 62.6645 73.143C65.7729 74.8999 67.6251 74.6771 70.4493 73.9132C73.2735 73.1493 74.7302 78.8411 74.5885 80.7387" stroke="#FF9D65" stroke-width="2" stroke-miterlimit="10" stroke-linecap="round"/>
<path d="M64.1554 72.6759C63.1689 71.3721 61.916 70.2899 60.4787 69.5002C58.0565 68.1651 60.3816 67.9637 61.9489 68.7702C65.0628 70.3739 65.4807 71.9104 65.3326 72.6759C65.2475 73.2034 65.2475 73.741 65.3326 74.2685" stroke="#FF9D65" stroke-width="2" stroke-miterlimit="10" stroke-linecap="round"/>
<path d="M47.5094 64.1495C47.5094 64.1495 47.7012 63.196 45.5879 62.2425" stroke="#FF9D65" stroke-width="2" stroke-miterlimit="10" stroke-linecap="round"/>
<path d="M55.9717 100.885L86.8744 100.905" stroke="#FF9D65" stroke-width="2" stroke-linecap="round" stroke-linejoin="round"/>
<path d="M170.637 81.1859V67.8873C170.637 67.8873 170.637 65.376 169.451 64.1594C166.841 61.4814 163.95 56.928 166.506 53.1787C166.604 53.0349 168.621 56.36 168.767 56.7336C169.35 58.4269 169.582 60.2198 169.449 62.0044" stroke="#FF9D65" stroke-width="2" stroke-miterlimit="10" stroke-linecap="round"/>
<path d="M170.636 67.8874C170.636 67.8874 172.118 66.4741 172.118 66.1795C172.118 62.292 180.191 58.5878 180.191 58.5878C180.191 58.5878 179.618 63.2234 178.51 64.4336C177.216 65.8493 174.933 66.4923 173.143 67.0595" stroke="#FF9D65" stroke-width="2" stroke-miterlimit="10" stroke-linecap="round"/>
<path d="M170.636 74.3485C170.636 74.3485 168.56 72.6516 167.078 71.4746C164.256 69.2342 160.928 68.9135 157.557 68.0255C157.247 67.9638 156.954 67.8384 156.695 67.6574C156.45 67.4615 161.319 65.0655 163.262 65.7306C165.349 66.4416 166.4 67.971 167.309 69.8851" stroke="#FF9D65" stroke-width="2" stroke-miterlimit="10" stroke-linecap="round"/>
<path d="M170.636 80.0646C175.014 77.2333 181.859 70.4395 181.355 70.1669C179.872 70.0674 178.383 70.2503 176.969 70.7057C175.874 71.2337 174.904 71.9851 174.122 72.9108C173.34 73.8365 172.764 74.9156 172.432 76.0775C172.354 76.5104 172.249 76.938 172.119 77.3581" stroke="#FF9D65" stroke-width="2" stroke-miterlimit="10" stroke-linecap="round"/>
</svg>
