<svg width="219" height="103" viewBox="0 0 219 92" fill="none" xmlns="http://www.w3.org/2000/svg">
<path d="M31.5796 90.8435V13.3534H17.9942V90.8435H1.125" stroke="#FF9D65" stroke-width="2" stroke-miterlimit="10" stroke-linecap="round"/>
<path d="M40.4873 90.8428V21.1863H47.0251V90.8428H211.279" stroke="#FF9D65" stroke-width="2" stroke-miterlimit="10" stroke-linecap="round"/>
<path d="M31.5791 26.8548H40.4261" stroke="#FF9D65" stroke-width="2" stroke-miterlimit="10" stroke-linecap="round"/>
<path d="M21.1279 20.6536H27.8756" stroke="#FF9D65" stroke-width="2" stroke-miterlimit="10" stroke-linecap="round"/>
<path d="M21.2031 36.156H27.9508" stroke="#FF9D65" stroke-width="2" stroke-miterlimit="10" stroke-linecap="round"/>
<path d="M21.2031 51.6467H27.9508" stroke="#FF9D65" stroke-width="2" stroke-miterlimit="10" stroke-linecap="round"/>
<path d="M21.2031 67.1356H27.9508" stroke="#FF9D65" stroke-width="2" stroke-miterlimit="10" stroke-linecap="round"/>
<path d="M21.2031 82.6242H27.9508" stroke="#FF9D65" stroke-width="2" stroke-miterlimit="10" stroke-linecap="round"/>
<path d="M194.139 90.8886L199.432 59.4504H170.762L175.44 90.8886" stroke="#FF9D65" stroke-width="2" stroke-miterlimit="10" stroke-linecap="round"/>
<path d="M190.435 27.3146C196.433 27.908 194.139 33.1453 194.139 33.1453C184.347 30.7714 195.143 22.0774 194.543 21.2762C189.04 14.0212 186.536 25.0298 186.536 25.0298C186.536 25.0298 190.345 27.1959 194.333 18.6947C198.322 10.1935 183.747 10.1935 183.747 10.1935C183.747 10.1935 187.736 17.9084 194.933 14.1548C202.131 10.4012 196.943 2.078 196.943 2.078C196.943 2.078 190.735 11.7661 199.327 13.5465C207.919 15.3268 209.733 7.03333 209.733 7.03333C206.758 7.46431 204.049 8.97071 202.131 11.2617C198.937 15.1043 193.734 27.4036 200.331 24.8221C201.172 24.5875 201.946 24.1624 202.592 23.5805C203.237 22.9986 203.737 22.2758 204.051 21.4695C204.366 20.6633 204.486 19.7956 204.402 18.9354C204.319 18.0752 204.034 17.2461 203.57 16.5137C202.545 17.1746 201.708 18.0853 201.141 19.1584C200.574 20.2314 200.295 21.4307 200.331 22.6411C200.331 27.003 204.725 29.9554 209.523 29.9554C214.322 29.9554 217.875 25.2227 217.875 25.2227C217.875 25.2227 218.085 24.3028 211.083 24.3028C204.08 24.3028 197.092 32.1364 197.092 33.9167C197.092 35.6971 199.492 38.2638 203.495 38.2638C207.499 38.2638 211.083 33.9167 211.083 33.9167C209.129 33.3258 207.119 32.9331 205.085 32.7447C203.09 32.7447 194.888 32.9227 194.888 39.0649C194.888 45.2072 199.687 45.1923 199.687 45.1923C199.297 38.8572 188.096 36.884 188.096 45.9787C188.096 55.0733 205.085 55.4739 205.085 55.4739C205.085 55.4739 205.085 49.1388 197.692 49.1388C190.3 49.1388 186.296 57.1356 186.296 57.1356" stroke="#FF9D65" stroke-width="2" stroke-miterlimit="10" stroke-linecap="round"/>
<path d="M182.742 53.7089C170.581 61.0232 179.743 68.9309 179.743 68.9309C181.291 66.6537 182.126 63.9752 182.142 61.2309C182.142 56.6761 177.734 52.3291 177.734 52.3291C176.65 53.2556 175.508 54.1128 174.315 54.8958C171.511 56.8839 163.519 56.0827 163.519 56.0827C163.519 56.0827 166.518 48.9613 174.315 48.9613C182.112 48.9613 185.501 50.9345 185.501 50.9345C185.501 50.9345 185.906 49.3618 181.108 44.8071C176.309 40.2523 166.922 44.8071 166.922 44.8071C169.092 45.6032 171.406 45.9418 173.715 45.8011C178.513 45.8011 197.707 33.7392 186.506 31.3654C175.304 28.9916 177.914 40.2672 177.914 40.2672C177.914 40.2672 187.105 40.0595 183.822 30.2675C180.538 20.4755 171.916 27.0183 171.916 27.0183C171.916 27.0183 172.71 29.1844 176.909 29.1844C181.108 29.1844 182.907 23.6505 183.702 21.1432C184.496 18.6358 181.302 7.62726 175.439 12.4787C169.576 17.3302 176.714 22.063 176.714 22.063C176.714 22.063 178.513 22.063 178.513 13.9624C178.479 11.6097 177.764 9.31599 176.454 7.35217C175.144 5.38835 173.294 3.83642 171.121 2.87964C171.316 9.21475 175.305 9.21475 177.704 9.21475" stroke="#FF9D65" stroke-width="2" stroke-miterlimit="10" stroke-linecap="round"/>
<path d="M165.918 40.4589C165.109 31.5571 155.422 32.3435 155.422 32.3435C155.422 32.3435 164.179 46.9869 169.367 38.8715C174.555 30.756 165.378 25.8303 165.378 25.8303C165.378 25.8303 162.38 36.8982 174.975 36.8982" stroke="#FF9D65" stroke-width="2" stroke-miterlimit="10" stroke-linecap="round"/>
<path d="M138.493 51.8541H77.4638C72.8676 51.8541 69.1416 55.5406 69.1416 60.0882V71.3935C69.1416 75.9411 72.8676 79.6277 77.4638 79.6277H138.493C143.089 79.6277 146.815 75.9411 146.815 71.3935V60.0882C146.815 55.5406 143.089 51.8541 138.493 51.8541Z" stroke="#FF9D65" stroke-width="2" stroke-miterlimit="10" stroke-linecap="round"/>
<path d="M137.788 79.7912L143.066 90.0728" stroke="#FF9D65" stroke-width="2" stroke-miterlimit="10" stroke-linecap="round"/>
<path d="M79.7281 79.7912L74.4648 90.0728" stroke="#FF9D65" stroke-width="2" stroke-miterlimit="10" stroke-linecap="round"/>
<path d="M77.2842 65.7399H88.9652" stroke="#FF9D65" stroke-width="2" stroke-miterlimit="10" stroke-linecap="round"/>
<path d="M114.112 68.5008C115.635 68.5008 116.871 67.2786 116.871 65.7709C116.871 64.2632 115.635 63.041 114.112 63.041C112.588 63.041 111.353 64.2632 111.353 65.7709C111.353 67.2786 112.588 68.5008 114.112 68.5008Z" stroke="#FF9D65" stroke-width="2" stroke-miterlimit="10" stroke-linecap="round"/>
<path d="M125.087 68.5008C126.611 68.5008 127.846 67.2786 127.846 65.7709C127.846 64.2632 126.611 63.041 125.087 63.041C123.563 63.041 122.328 64.2632 122.328 65.7709C122.328 67.2786 123.563 68.5008 125.087 68.5008Z" stroke="#FF9D65" stroke-width="2" stroke-miterlimit="10" stroke-linecap="round"/>
<path d="M136.064 68.5008C137.588 68.5008 138.823 67.2786 138.823 65.7709C138.823 64.2632 137.588 63.041 136.064 63.041C134.54 63.041 133.305 64.2632 133.305 65.7709C133.305 67.2786 134.54 68.5008 136.064 68.5008Z" stroke="#FF9D65" stroke-width="2" stroke-miterlimit="10" stroke-linecap="round"/>
<path d="M81.2725 51.6609V27.003" stroke="#FF9D65" stroke-width="2" stroke-miterlimit="10" stroke-linecap="round"/>
<path d="M75.8135 24.0497C76.4056 23.1306 77.2222 22.3741 78.188 21.85C79.1538 21.3259 80.2376 21.0512 81.3391 21.0512C82.4406 21.0512 83.5243 21.3259 84.4901 21.85C85.4559 22.3741 86.2726 23.1306 86.8647 24.0497" stroke="#FF9D65" stroke-width="2" stroke-miterlimit="10" stroke-linecap="round"/>
<path d="M72.2754 19.2885C73.4318 18.0578 74.8322 17.0761 76.3892 16.4049C77.9462 15.7336 79.6264 15.3871 81.3248 15.3871C83.0232 15.3871 84.7033 15.7336 86.2604 16.4049C87.8174 17.0761 89.2178 18.0578 90.3742 19.2885" stroke="#FF9D65" stroke-width="2" stroke-miterlimit="10" stroke-linecap="round"/>
<path d="M68.707 14.1399C72.1923 10.9285 76.7924 9.16662 81.5546 9.2191C86.3168 9.27157 90.8762 11.1344 94.2883 14.4218" stroke="#FF9D65" stroke-width="2" stroke-miterlimit="10" stroke-linecap="round"/>
<path d="M64.6436 9.95555C69.146 5.79092 75.0794 3.47418 81.2429 3.47418C87.4064 3.47418 93.3397 5.79092 97.8422 9.95555" stroke="#FF9D65" stroke-width="2" stroke-miterlimit="10" stroke-linecap="round"/>
</svg>
