<svg width="272" height="132" viewBox="0 0 272 132" fill="none" xmlns="http://www.w3.org/2000/svg">
<path d="M270.05 116.807H170.458V13.9218C170.439 12.6666 169.916 11.4687 169 10.5859C168.084 9.70127 166.849 9.20256 165.56 9.19727H117.221C115.92 9.19597 114.668 9.68825 113.732 10.5699C112.819 11.4592 112.301 12.6633 112.291 13.9218V111.907C112.291 113.177 112.809 114.395 113.73 115.293C114.652 116.191 115.902 116.696 117.205 116.696H159.27" stroke="#FF9D65" stroke-width="2" stroke-miterlimit="10" stroke-linecap="round"/>
<path d="M61.0219 116.775H1.93848" stroke="#FF9D65" stroke-width="2" stroke-miterlimit="10" stroke-linecap="round"/>
<path d="M170.146 94.7484H112.374" stroke="#FF9D65" stroke-width="2" stroke-miterlimit="10" stroke-linecap="round"/>
<path d="M145.545 108.301C145.562 109.252 145.238 110.178 144.627 110.919C144.013 111.662 143.158 112.179 142.203 112.387C141.241 112.583 140.239 112.448 139.368 112.004C138.498 111.573 137.813 110.854 137.435 109.977C137.061 109.1 137.011 108.124 137.291 107.215C137.571 106.306 138.166 105.519 138.973 104.987C139.781 104.456 140.752 104.213 141.723 104.299C142.694 104.385 143.604 104.795 144.3 105.46C145.083 106.21 145.531 107.231 145.545 108.301V108.301Z" stroke="#FF9D65" stroke-width="2" stroke-miterlimit="10" stroke-linecap="round"/>
<path d="M136.438 15.6942H146.396" stroke="#FF9D65" stroke-width="2" stroke-miterlimit="10" stroke-linecap="round"/>
<path d="M179.417 91.11L210.277 112.243" stroke="#FF9D65" stroke-width="2" stroke-miterlimit="10" stroke-linecap="round"/>
<path d="M183.512 93.887C181.691 96.4281 180.668 99.431 180.569 102.529C180.471 105.627 181.299 108.686 182.955 111.332" stroke="#FF9D65" stroke-width="2" stroke-miterlimit="10" stroke-linecap="round"/>
<path d="M71.833 88.0605L93.4713 105.107L91.6694 107.118L90.6375 108.347L84.9208 115.178C84.4337 115.764 83.8846 116.299 83.2828 116.774H108.476" stroke="#FF9D65" stroke-width="2" stroke-miterlimit="10" stroke-linecap="round"/>
<path d="M68.786 116.742C66.4626 114.872 64.9881 112.186 64.6816 109.265C64.375 106.344 65.2611 103.422 67.148 101.132L84.1014 80.9895C86.0302 78.7041 88.8107 77.2575 91.8327 76.9673C93.3325 76.8243 94.8465 76.9707 96.2881 77.3983C97.7251 77.8172 99.0617 78.5118 100.219 79.4413C101.384 80.3733 102.352 81.5171 103.069 82.8091C103.775 84.0983 104.213 85.5108 104.356 86.9654C104.5 88.42 104.346 89.8879 103.905 91.2845C103.475 92.6847 102.762 93.9872 101.808 95.1151L97.8278 99.9035" stroke="#FF9D65" stroke-width="2" stroke-miterlimit="10" stroke-linecap="round"/>
<path d="M205.691 116.537L207.149 115.596C210.372 113.28 212.613 109.895 213.449 106.079C214.284 102.264 213.657 98.2816 211.685 94.886C209.712 91.4904 206.532 88.9163 202.745 87.6502C198.957 86.3841 194.825 86.5136 191.129 88.0144" stroke="#FF9D65" stroke-width="2" stroke-miterlimit="10" stroke-linecap="round"/>
</svg>
